Coordinates
version=1
nRows=22
nColumns=24
inDegrees=yes

Units are S.I. units (second, meters, Newtons, ...)
Angles are in degrees.

endheader
time	pelvis_tilt	pelvis_list	pelvis_rotation	pelvis_tx	pelvis_ty	pelvis_tz	hip_flexion_r	hip_adduction_r	hip_rotation_r	knee_angle_r	ankle_angle_r	subtalar_angle_r	mtp_angle_r	hip_flexion_l	hip_adduction_l	hip_rotation_l	knee_angle_l	ankle_angle_l	subtalar_angle_l	mtp_angle_l	lumbar_extension	lumbar_bending	lumbar_rotation
      1.26750000	     -2.26944235	     -1.59613327	     -7.77050945	     -0.00483968	      0.96070648	      0.34365058	    -16.81798052	      2.86766685	      0.50244323	     -8.62080383	     11.82100239	      7.71700166	      7.22083308	     28.45873997	     -2.25649084	     -6.94199877	     -0.95242979	      6.35893592	     -3.84865612	      2.39704571	      2.65285053	      5.90262133	     11.68795871
      1.27166667	     -2.29996982	     -1.49917152	     -7.83673944	      0.00116504	      0.95995449	      0.34332104	    -16.95735034	      2.64801577	      0.31669838	     -8.94242068	     11.65975287	      8.10278457	      8.23289406	     28.47712490	     -2.14401896	     -6.87100399	     -1.11346315	      6.19907052	     -4.36003584	      2.52110976	      2.73071248	      5.80910560	     11.83236600
      1.27583333	     -2.34013215	     -1.39375711	     -7.89121806	      0.00726135	      0.95925128	      0.34304496	    -17.14043566	      2.44483296	      0.30699770	     -9.16577820	     11.46931450	      8.02552346	      8.32585617	     28.56060724	     -2.04061562	     -6.99962648	     -1.44644886	      6.08158413	     -4.49388687	      2.53027054	      2.86661581	      5.68486929	     11.82727647
      1.28000000	     -2.34386501	     -1.24935138	     -7.93272113	      0.01342018	      0.95860368	      0.34269912	    -17.33213493	      2.17918045	      0.12061869	     -9.41521316	     11.08671645	      8.32695686	     12.65256013	     28.57806865	     -1.87456833	     -6.98661725	     -1.76800999	      5.84806670	     -4.95977743	      3.15212835	      2.94220425	      5.51257724	     11.78962604
      1.28416667	     -2.45660146	     -1.13784135	     -7.98711751	      0.01951620	      0.95786890	      0.34239811	    -17.38813418	      1.98127120	      0.12513494	     -9.73013196	     10.90255719	      8.19021882	     12.70717199	     28.76799789	     -1.77249355	     -7.00604499	     -2.25525130	      5.65147812	     -5.28657210	      3.15683958	      3.13594620	      5.40247137	     11.92686664
      1.28833333	     -2.53339558	     -1.00480020	     -8.03331744	      0.02570041	      0.95721984	      0.34207925	    -17.49006358	      1.75536145	      0.10483023	    -10.01877658	     10.62664951	      8.15682914	     12.79621730	     28.90568921	     -1.63649845	     -6.99647853	     -2.75823532	      5.39664072	     -5.74718894	      3.16985504	      3.30312733	      5.26045166	     12.00767063
      1.29250000	     -2.60431185	     -0.87158762	     -8.07292194	      0.03190435	      0.95661287	      0.34172382	    -17.57432525	      1.52547076	      0.04111978	    -10.35159066	     10.37064017	      8.19605630	     13.03045309	     29.02582024	     -1.48602737	     -6.89228227	     -3.27177750	      5.06391812	     -6.44337478	      3.21581993	      3.47651262	      5.12136213	     12.07684611
      1.29666667	     -2.65751924	     -0.70327034	     -8.10316572	      0.03819739	      0.95606836	      0.34139386	    -17.68537367	      1.26537353	     -0.00340439	    -10.66271279	     10.04327619	      8.10248534	     13.10292608	     29.16446715	     -1.31152346	     -6.96783269	     -3.89546982	      4.79625584	     -6.77600869	      3.22823417	      3.64722164	      4.90859688	     12.10035548
      1.30083333	     -2.78753971	     -0.55241898	     -8.10929733	      0.04447677	      0.95546195	      0.34097729	    -17.70518725	      1.04052512	     -0.03930218	    -10.98120787	      9.66987230	      8.11091266	     13.37530408	     29.36358833	     -1.13038036	     -6.80326812	     -4.49027054	      4.33479954	     -7.53333886	      3.28593792	      3.89367571	      4.77254376	     12.16400397
      1.30500000	     -2.83556830	     -0.32911070	     -8.11345011	      0.05085277	      0.95499256	      0.34053395	    -17.77779584	      0.71978670	     -0.16500380	    -11.36542998	      9.37762970	      8.07075851	     14.20976935	     29.45175770	     -0.85850648	     -6.66262580	     -5.05724108	      3.89039581	     -8.32870683	      3.47842967	      4.05932349	      4.50360075	     12.18455842
      1.30916667	     -2.93874827	     -0.15223278	     -8.13557360	      0.05719516	      0.95452715	      0.34016351	    -17.79007696	      0.46499462	     -0.16505843	    -11.73611027	      8.85289615	      7.93513097	     14.33764324	     29.66615895	     -0.67644773	     -6.74056631	     -5.79289594	      3.53818068	     -8.63292184	      3.50365998	      4.27099405	      4.31186075	     12.20851759
      1.31333333	     -2.97630634	      0.06546681	     -8.11938214	      0.06363931	      0.95417583	      0.33967894	    -17.87984740	      0.15533144	     -0.27907281	    -12.06893725	      8.23147778	      7.95363909	     18.27694375	     29.74621896	     -0.39317366	     -6.58688432	     -6.40132344	      3.02785530	     -9.47838889	      4.39801299	      4.43805745	      4.05858100	     12.20236860
      1.31750000	     -3.15809808	      0.23658258	     -8.11258450	      0.06997756	      0.95368703	      0.33923569	    -17.75250736	     -0.06986319	     -0.26304258	    -12.55168453	      7.84219408	      7.66735364	     18.39801162	     30.04960633	     -0.20256322	     -6.56028545	     -7.16695792	      2.58445567	     -9.91139337	      4.41195804	      4.75124047	      3.89551659	     12.26076301
      1.32166667	     -3.27855094	      0.44556770	     -8.08070311	      0.07642781	      0.95334472	      0.33876236	    -17.71667200	     -0.33416354	     -0.26246171	    -12.95976526	      7.28318811	      7.47007806	     18.54265792	     30.25632288	      0.05351953	     -6.50114587	     -7.88123053	      2.10771137	    -10.42399458	      4.42980194	      5.02263876	      3.65726814	     12.28312433
      1.32583333	     -3.37602401	      0.69416450	     -8.05209816	      0.08288325	      0.95306281	      0.33822324	    -17.64030275	     -0.66190803	     -0.36711277	    -13.47590215	      6.69773033	      7.33405412	     21.74804485	     30.41824476	      0.36326962	     -6.41673720	     -8.55230505	      1.60666789	    -11.03927600	      4.95685770	      5.25071567	      3.38326407	     12.28383343
      1.33000000	     -3.49847523	      0.91228213	     -8.00770269	      0.08934079	      0.95282296	      0.33770961	    -17.55794772	     -0.92709709	     -0.33459276	    -13.94842776	      6.04667071	      7.05855943	     21.79258685	     30.62536374	      0.63738186	     -6.35678745	     -9.28031705	      1.16216887	    -11.47919636	      4.95344897	      5.50892872	      3.14536136	     12.30788681
      1.33416667	     -3.59041186	      1.14374299	     -7.96250344	      0.09579271	      0.95266809	      0.33716528	    -17.45692723	     -1.21674701	     -0.34820772	    -14.51337930	      5.40866735	      6.80501243	     21.92530829	     30.78093138	      0.93743692	     -6.26967860	     -9.97300394	      0.71570230	    -11.99186950	      4.95989762	      5.73462290	      2.88003661	     12.31475078
      1.33833333	     -3.69701416	      1.39441591	     -7.89697769	      0.10229410	      0.95254798	      0.33660391	    -17.33867845	     -1.51348484	     -0.34795652	    -15.06552813	      4.69539845	      6.57666956	     22.05414579	     30.95832324	      1.25748686	     -6.23077395	    -10.68556041	      0.29079599	    -12.36542466	      4.96577450	      5.99241230	      2.58993596	     12.32867362
      1.34250000	     -3.80230853	      1.64220646	     -7.84301994	      0.10873417	      0.95248453	      0.33600031	    -17.15550124	     -1.81669536	     -0.35423776	    -15.73391872	      3.96987295	      6.32048368	     22.33953921	     31.10883004	      1.58534707	     -6.11389987	    -11.34844239	     -0.12600829	    -12.86876995	      4.98349468	      6.21842006	      2.32444581	     12.33720015
      1.34666667	     -3.84376017	      1.93366351	     -7.74688415	      0.11526150	      0.95253175	      0.33534888	    -17.04028139	     -2.16980991	     -0.46188395	    -16.38316583	      3.11851469	      6.11962432	     25.92462157	     31.18664026	      1.97986364	     -6.04010608	    -12.00154115	     -0.50483301	    -13.24041338	      5.21858224	      6.39964855	      1.97035922	     12.34213091
      1.35083333	     -3.93040317	      2.20448990	     -7.69391509	      0.12172902	      0.95259380	      0.33477815	    -16.82561368	     -2.49048461	     -0.41826695	    -17.12591928	      2.33896842	      5.81431564	     25.93934284	     31.31895085	      2.31142198	     -6.07005873	    -12.68464619	     -0.79001776	    -13.41226549	      5.21397033	      6.63050015	      1.65020813	     12.35099359
      1.35500000	     -4.02156718	      2.46783191	     -7.61048357	      0.12817067	      0.95269000	      0.33413978	    -16.58862670	     -2.79227145	     -0.37571889	    -17.88592125	      1.46857303	      5.52259950	     25.98183242	     31.44902297	      2.65998725	     -6.02085901	    -13.35549636	     -1.07436646	    -13.66227196	      5.20866925	      6.84000284	      1.35954955	     12.36802166
